<svg data-v-0dd9719b="" version="1.0" xmlns="http://www.w3.org/2000/svg" xmlns:xlink="http://www.w3.org/1999/xlink" width="100%" height="100%" viewBox="0 0 340.000000 250.000000" preserveAspectRatio="xMidYMid meet" color-interpolation-filters="sRGB" style="margin: auto;"> <rect data-v-0dd9719b="" x="0" y="0" width="100%" height="100%" fill="#0a0619" fill-opacity="1" class="background"></rect>  <g data-v-0dd9719b="" fill="#ffffff" class="icon-text-wrapper icon-svg-group iconsvg" transform="translate(140,66.76020050048828)"><g class="iconsvg-imagesvg" transform="translate(0,0)" mask="url(#5b2f2c68-ecc7-4774-a06c-63055bb1a05c)"><g><rect fill="#ffffff" fill-opacity="0" stroke-width="2" x="0" y="0" width="60" height="60.0096015362458" class="image-rect"></rect> <svg filter="url(#colors1213026667)" x="0" y="0" width="60" height="60.0096015362458" filtersec="colorsf4047031897" class="image-svg-svg primary" style="overflow: visible;"><svg xmlns="http://www.w3.org/2000/svg" xmlns:xlink="http://www.w3.org/1999/xlink" viewBox="-2 -2 103.98438 104" version="1.1" x="0px" y="0px"><title>flower2</title><desc>Created with Sketch.</desc><g stroke="none" stroke-width="1" fill-rule="evenodd"><g><path d="M51.6984911,34.1371141 C52.3860648,33.2066195 53.3695448,31.6020403 54.3451369,29.4674517 C55.9771748,25.8965645 56.9608643,22.102105 56.9608643,18.2231268 C56.9608643,14.3441486 55.9771748,10.5496891 54.3451369,6.97880193 C53.3695448,4.84421323 52.3860648,3.23963411 51.6984911,2.30913944 L49.9921906,0 L48.2858901,2.30913944 C47.5983164,3.23963411 46.6148365,4.84421323 45.6392443,6.97880193 C44.0072065,10.5496891 43.023517,14.3441486 43.023517,18.2231268 C43.023517,22.102105 44.0072065,25.8965645 45.6392443,29.4674517 C46.6148365,31.6020403 47.5983164,33.2066195 48.2858901,34.1371141 L49.9921906,36.4462536 L51.6984911,34.1371141 L51.6984911,34.1371141 L51.6984911,34.1371141 L51.6984911,34.1371141 L51.6984911,34.1371141 L51.6984911,34.1371141 L51.6984911,34.1371141 Z M59.0830557,36.8064317 C60.1237097,36.3100907 61.739722,35.3585385 63.5957268,33.9352845 C66.7005798,31.5543671 69.3371482,28.6693644 71.1445518,25.2444299 C72.9519554,21.8194955 73.8514313,18.0038804 74.0742765,14.0789854 C74.2074878,11.7327794 74.0867776,9.85081312 73.9132485,8.70399802 L73.4826144,5.85803225 L70.9001007,7.08976471 C69.8594467,7.58610567 68.2434344,8.53765789 66.3874295,9.96091187 C63.2825766,12.3418293 60.6460081,15.226832 58.8386045,18.6517664 C57.031201,22.0767009 56.1317251,25.8923159 55.9088799,29.817211 C55.7756685,32.1634169 55.8963787,34.0453833 56.0699078,35.1921984 L56.500542,38.0381641 L59.0830557,36.8064317 L59.0830557,36.8064317 L59.0830557,36.8064317 L59.0830557,36.8064317 L59.0830557,36.8064317 L59.0830557,36.8064317 L59.0830557,36.8064317 Z M64.595335,42.8058427 C65.7462076,42.839619 67.6148388,42.7309814 69.909846,42.3118326 C73.7490923,41.6106517 77.3982265,40.2461233 80.5518538,38.0212328 C83.7054811,35.7963423 86.2261731,32.8080456 88.1932225,29.4128731 C89.3690763,27.3833223 90.1095057,25.6512623 90.4716261,24.5500664 L91.3702734,21.8173102 L88.5142386,21.73349 C87.363366,21.6997137 85.4947348,21.8083513 83.1997276,22.2275 C79.3604813,22.928681 75.7113471,24.2932094 72.5577198,26.5180999 C69.4040925,28.7429903 66.8834005,31.731287 64.9163511,35.1264596 C63.7404973,37.1560104 63.0000679,38.8880703 62.6379475,39.9892663 L61.7393002,42.7220224 L64.595335,42.8058427 L64.595335,42.8058427 L64.595335,42.8058427 L64.595335,42.8058427 L64.595335,42.8058427 L64.595335,42.8058427 L64.595335,42.8058427 Z M66.5639414,50.4690993 C67.5643636,51.0433094 69.2648865,51.8312906 71.4865592,52.5467917 C75.2031266,53.7437313 79.0609207,54.2650428 82.8820924,53.7923143 C86.7032641,53.3195858 90.321295,51.8734177 93.6400717,49.8061147 C95.6239549,48.5703318 97.0847657,47.3912525 97.9175995,46.5902449 L99.9843813,44.6024438 L97.5017081,43.1774694 C96.5012859,42.6032593 94.800763,41.8152781 92.5790903,41.099777 C88.8625229,39.9028373 85.0047288,39.3815258 81.1835571,39.8542543 C77.3623854,40.3269829 73.7443544,41.773151 70.4255778,43.8404539 C68.4416946,45.0762369 66.9808838,46.2553161 66.14805,47.0563238 L64.0812682,49.0441248 L66.5639414,50.4690993 L66.5639414,50.4690993 L66.5639414,50.4690993 L66.5639414,50.4690993 L66.5639414,50.4690993 L66.5639414,50.4690993 L66.5639414,50.4690993 Z M64.8137647,58.1768444 C65.4295328,59.1570629 66.5638469,60.6571928 68.1920809,62.3398415 C70.9159031,65.1546924 74.0792288,67.4398023 77.6733903,68.8299037 C81.2675517,70.2200052 85.1359231,70.6545206 89.0294853,70.3990528 C91.3569613,70.2463404 93.1961707,69.89627 94.3047475,69.5829705 L97.0558202,68.8054783 L95.5277144,66.372943 C94.9119463,65.3927245 93.7776323,63.8925946 92.1493982,62.2099459 C89.4255761,59.395095 86.2622503,57.1099851 82.6680888,55.7198837 C79.0739274,54.3297822 75.2055561,53.8952668 71.3119938,54.1507346 C68.9845178,54.303447 67.1453084,54.6535174 66.0367316,54.966817 L63.2856589,55.7443091 L64.8137647,58.1768444 L64.8137647,58.1768444 L64.8137647,58.1768444 L64.8137647,58.1768444 L64.8137647,58.1768444 L64.8137647,58.1768444 L64.8137647,58.1768444 Z M59.5584611,64.4086906 C59.6654442,65.5637383 60.0001917,67.4192254 60.6927851,69.6632686 C61.8514031,73.4172587 63.6403142,76.9002854 66.2163787,79.782928 C68.7924432,82.6655705 72.0434019,84.8222097 75.6277009,86.3755922 C77.7703068,87.3041662 79.5667904,87.8335484 80.6957071,88.0614853 L83.4972559,88.6271393 L83.2317639,85.7607433 C83.1247808,84.6056956 82.7900333,82.7502085 82.0974399,80.5061654 C80.9388219,76.7521752 79.1499108,73.2691485 76.5738463,70.3865059 C73.9977817,67.5038634 70.7468231,65.3472242 67.1625241,63.7938417 C65.0199182,62.8652677 63.2234346,62.3358855 62.0945179,62.1079486 L59.2929691,61.5422946 L59.5584611,64.4086906 L59.5584611,64.4086906 L59.5584611,64.4086906 L59.5584611,64.4086906 L59.5584611,64.4086906 L59.5584611,64.4086906 L59.5584611,64.4086906 Z M52.2396682,67.2928168 C51.795936,68.3632686 51.2269393,70.1599093 50.7928548,72.4688933 C50.0666882,76.3315209 50.0232923,80.2530442 50.9546597,84.0168002 C51.8860271,87.7805561 53.7515707,91.2225285 56.1925228,94.289534 C57.651664,96.1229146 58.9912001,97.4401065 59.8817676,98.1753646 L62.0918228,100 L63.1929998,97.3435392 C63.6367319,96.2730873 64.2057286,94.4764466 64.6398132,92.1674627 C65.3659798,88.304835 65.4093756,84.3833117 64.4780082,80.6195557 C63.5466409,76.8557998 61.6810973,73.4138274 59.2401451,70.3468219 C57.7810039,68.5134414 56.4414679,67.1962495 55.5509003,66.4609913 L53.3408452,64.6363559 L52.2396682,67.2928168 L52.2396682,67.2928168 L52.2396682,67.2928168 L52.2396682,67.2928168 L52.2396682,67.2928168 L52.2396682,67.2928168 L52.2396682,67.2928168 Z M44.4334809,66.4609913 C43.5429134,67.1962495 42.2033773,68.5134414 40.7442361,70.3468219 C38.303284,73.4138274 36.4377404,76.8557998 35.506373,80.6195557 C34.5750056,84.3833117 34.6184015,88.304835 35.3445681,92.1674627 C35.7786526,94.4764466 36.3476494,96.2730873 36.7913815,97.3435392 L37.8925585,100 L40.1026137,98.1753646 C40.9931812,97.4401065 42.3327172,96.1229146 43.7918585,94.289534 C46.2328106,91.2225285 48.0983542,87.7805561 49.0297216,84.0168002 C49.9610889,80.2530442 49.9176931,76.3315209 49.1915265,72.4688933 C48.7574419,70.1599093 48.1884452,68.3632686 47.7447131,67.2928168 L46.6435361,64.6363559 L44.4334809,66.4609913 L44.4334809,66.4609913 L44.4334809,66.4609913 L44.4334809,66.4609913 L44.4334809,66.4609913 L44.4334809,66.4609913 L44.4334809,66.4609913 Z M37.8898634,62.1079486 C36.7609466,62.3358855 34.9644631,62.8652677 32.8218572,63.7938417 C29.2375582,65.3472242 25.9865995,67.5038634 23.410535,70.3865059 C20.8344705,73.2691485 19.0455593,76.7521752 17.8869413,80.5061654 C17.1943479,82.7502085 16.8596004,84.6056956 16.7526173,85.7607433 L16.4871253,88.6271393 L19.2886741,88.0614853 C20.4175909,87.8335484 22.2140744,87.3041662 24.3566804,86.3755922 C27.9409794,84.8222097 31.191938,82.6655705 33.7680025,79.782928 C36.3440671,76.9002854 38.1329782,73.4172587 39.2915962,69.6632686 C39.9841896,67.4192254 40.3189371,65.5637383 40.4259202,64.4086906 L40.6914122,61.5422946 L37.8898634,62.1079486 L37.8898634,62.1079486 L37.8898634,62.1079486 L37.8898634,62.1079486 L37.8898634,62.1079486 L37.8898634,62.1079486 L37.8898634,62.1079486 Z M33.9476497,54.966817 C32.8390729,54.6535174 30.9998634,54.303447 28.6723875,54.1507346 C24.7788252,53.8952668 20.9104538,54.3297822 17.3162924,55.7198837 C13.722131,57.1099851 10.5588052,59.395095 7.83498303,62.2099459 C6.206749,63.8925946 5.07243495,65.3927245 4.45666689,66.372943 L2.92856109,68.8054783 L5.67963372,69.5829705 C6.78821053,69.89627 8.62741997,70.2463404 10.9548959,70.3990528 C14.8484582,70.6545206 18.7168296,70.2200052 22.310991,68.8299037 C25.9051524,67.4398023 29.0684782,65.1546924 31.7923004,62.3398415 C33.4205344,60.6571928 34.5548485,59.1570629 35.1706165,58.1768444 L36.6987223,55.7443091 L33.9476497,54.966817 L33.9476497,54.966817 L33.9476497,54.966817 L33.9476497,54.966817 L33.9476497,54.966817 L33.9476497,54.966817 L33.9476497,54.966817 Z M33.8363313,47.0563238 C33.0034975,46.2553161 31.5426866,45.0762369 29.5588034,43.8404539 C26.2400268,41.773151 22.6219959,40.3269829 18.8008242,39.8542543 C14.9796525,39.3815258 11.1218584,39.9028373 7.40529099,41.099777 C5.18361824,41.8152781 3.48309532,42.6032593 2.4826732,43.1774694 L0,44.6024438 L2.06678175,46.5902449 C2.89961556,47.3912525 4.36042638,48.5703318 6.34430957,49.8061147 C9.66308621,51.8734177 13.2811171,53.3195858 17.1022888,53.7923143 C20.9234605,54.2650428 24.7812546,53.7437313 28.497822,52.5467917 C30.7194948,51.8312906 32.4200177,51.0433094 33.4204398,50.4690993 L35.903113,49.0441248 L33.8363313,47.0563238 L33.8363313,47.0563238 L33.8363313,47.0563238 L33.8363313,47.0563238 L33.8363313,47.0563238 L33.8363313,47.0563238 L33.8363313,47.0563238 Z M37.3464338,39.9892663 C36.9843133,38.8880703 36.243884,37.1560104 35.0680302,35.1264596 C33.1009808,31.731287 30.5802887,28.7429903 27.4266615,26.5180999 C24.2730342,24.2932094 20.6238999,22.928681 16.7846536,22.2275 C14.4896464,21.8083513 12.6210153,21.6997137 11.4701427,21.73349 L8.61410786,21.8173102 L9.51275517,24.5500664 C9.87487558,25.6512623 10.6153049,27.3833223 11.7911588,29.4128731 C13.7582082,32.8080456 16.2789002,35.7963423 19.4325275,38.0212328 C22.5861547,40.2461233 26.235289,41.6106517 30.0745353,42.3118326 C32.3695425,42.7309814 34.2381737,42.839619 35.3890462,42.8058427 L38.2450811,42.7220224 L37.3464338,39.9892663 L37.3464338,39.9892663 L37.3464338,39.9892663 L37.3464338,39.9892663 L37.3464338,39.9892663 L37.3464338,39.9892663 L37.3464338,39.9892663 Z M43.9144734,35.1921984 C44.0880025,34.0453833 44.2087127,32.1634169 44.0755014,29.817211 C43.8526562,25.8923159 42.9531803,22.0767009 41.1457767,18.6517664 C39.3383732,15.226832 36.7018047,12.3418293 33.5969517,9.96091187 C31.7409469,8.53765789 30.1249346,7.58610567 29.0842806,7.08976471 L26.5017669,5.85803225 L26.0711327,8.70399802 C25.8976037,9.85081312 25.7768934,11.7327794 25.9101048,14.0789854 C26.13295,18.0038804 27.0324259,21.8194955 28.8398294,25.2444299 C30.647233,28.6693644 33.2838015,31.5543671 36.3886544,33.9352845 C38.2446593,35.3585385 39.8606716,36.3100907 40.9013256,36.8064317 L43.4838393,38.0381641 L43.9144734,35.1921984 L43.9144734,35.1921984 L43.9144734,35.1921984 L43.9144734,35.1921984 L43.9144734,35.1921984 L43.9144734,35.1921984 L43.9144734,35.1921984 Z M49.9921906,64.2685071 C57.4059872,64.2685071 63.4160567,58.2129934 63.4160567,50.7431386 C63.4160567,43.2732838 57.4059872,37.21777 49.9921906,37.21777 C42.5783941,37.21777 36.5683245,43.2732838 36.5683245,50.7431386 C36.5683245,58.2129934 42.5783941,64.2685071 49.9921906,64.2685071 L49.9921906,64.2685071 L49.9921906,64.2685071 L49.9921906,64.2685071 L49.9921906,64.2685071 L49.9921906,64.2685071 Z"></path></g></g></svg></svg> <defs><filter id="colors1213026667"><feColorMatrix type="matrix" values="0 0 0 0 0.99609375  0 0 0 0 0.99609375  0 0 0 0 0.99609375  0 0 0 1 0" class="icon-fecolormatrix"></feColorMatrix></filter> <filter id="colorsf4047031897"><feColorMatrix type="matrix" values="0 0 0 0 0.99609375  0 0 0 0 0.99609375  0 0 0 0 0.99609375  0 0 0 1 0" class="icon-fecolormatrix"></feColorMatrix></filter> <filter id="colorsb9709635377"><feColorMatrix type="matrix" values="0 0 0 0 0  0 0 0 0 0  0 0 0 0 0  0 0 0 1 0" class="icon-fecolormatrix"></feColorMatrix></filter></defs></g><rect v-gra="id" width="72" height="72.00960159301758" transform="translate(-6, -6)" style="pointer-events:none;" fill="url(#wrBtdihTxcK9T0jPu1f4e)"></rect></g> <g transform="translate(15.53499984741211,67.00960159301758)"><g data-gra="path-name" fill-rule="" class="tp-name iconsvg-namesvg"><g transform="scale(1)"><g><path d="M28.6-39.78C28.6-47.84 20.28-48.69 17.29-48.69 10.53-48.69 4.23-44.27 4.23-35.55 4.23-20.48 23.27-26.13 23.27-11.63 23.27-5.92 20.35-2.79 16.38-2.79 13-2.79 8.32-5.07 8.32-9.75 8.32-11.96 9.36-15.28 13.52-15.47 12.48-18.33 11.18-19.18 9.29-19.18 4.62-19.18 2.21-13.97 2.21-9.69 2.21-2.27 9.29 0.78 15.99 0.78 23.6 0.78 31.14-3.12 31.14-13.59 31.14-30.94 10.53-25.87 10.53-38.48 10.53-42.84 13-46.34 17.55-46.34 21.91-46.34 23.79-43.16 23.79-40.17 23.79-38.35 23.07-36.53 21.91-35.69 22.75-34.77 23.53-34.32 24.7-34.32 27.04-34.32 28.6-36.34 28.6-39.78Z" transform="translate(-2.2100000381469727, 48.689998626708984)"></path></g> <!----> <!----> <!----> <!----> <!----> <!----> <!----></g></g> <!----></g></g><defs v-gra="od"></defs><defs v-gra="id"><filter id="b8ddc4b8-35c0-4fa9-8de2-7c45940c74ab" filterUnits="userSpaceOnUse"><feColorMatrix type="matrix" values="0 0 0 0 0.99609375  0 0 0 0 0.99609375  0 0 0 0 0.99609375  0 0 0 1 0"></feColorMatrix></filter><linearGradient x1="0" y1="1" x2="0" y2="0" id="wrBtdihTxcK9T0jPu1f4e"><stop offset="0%" stop-color="#57ec99"></stop><stop offset="33.33%" stop-color="#1371ef"></stop><stop offset="66.67%" stop-color="#fc1cd5"></stop><stop offset="100%" stop-color="#fccc05"></stop></linearGradient><filter id="42443b3f1de60f6b6fd3b6a9844b4764" filterUnits="objectBoundingBox"><feColorMatrix type="matrix" values="0 0 0 0 0.99609375  0 0 0 0 0.99609375  0 0 0 0 0.99609375  0 0 0 1 0"></feColorMatrix></filter></defs><mask v-gra="im" id="5b2f2c68-ecc7-4774-a06c-63055bb1a05c"><g class="iconsvg-imagesvg" filter="url(#b8ddc4b8-35c0-4fa9-8de2-7c45940c74ab)"><g><rect fill="#ffffff" fill-opacity="0" stroke-width="2" x="0" y="0" width="60" height="60.0096015362458" class="image-rect"></rect> <svg x="0" y="0" width="60" height="60.0096015362458" filtersec="colorsf4047031897" class="image-svg-svg primary" style="overflow: visible;"><svg xmlns="http://www.w3.org/2000/svg" xmlns:xlink="http://www.w3.org/1999/xlink" viewBox="-2 -2 103.98438 104" version="1.1" x="0px" y="0px"><title>flower2</title><desc>Created with Sketch.</desc><g stroke="none" stroke-width="1" fill-rule="evenodd"><g><path d="M51.6984911,34.1371141 C52.3860648,33.2066195 53.3695448,31.6020403 54.3451369,29.4674517 C55.9771748,25.8965645 56.9608643,22.102105 56.9608643,18.2231268 C56.9608643,14.3441486 55.9771748,10.5496891 54.3451369,6.97880193 C53.3695448,4.84421323 52.3860648,3.23963411 51.6984911,2.30913944 L49.9921906,0 L48.2858901,2.30913944 C47.5983164,3.23963411 46.6148365,4.84421323 45.6392443,6.97880193 C44.0072065,10.5496891 43.023517,14.3441486 43.023517,18.2231268 C43.023517,22.102105 44.0072065,25.8965645 45.6392443,29.4674517 C46.6148365,31.6020403 47.5983164,33.2066195 48.2858901,34.1371141 L49.9921906,36.4462536 L51.6984911,34.1371141 L51.6984911,34.1371141 L51.6984911,34.1371141 L51.6984911,34.1371141 L51.6984911,34.1371141 L51.6984911,34.1371141 L51.6984911,34.1371141 Z M59.0830557,36.8064317 C60.1237097,36.3100907 61.739722,35.3585385 63.5957268,33.9352845 C66.7005798,31.5543671 69.3371482,28.6693644 71.1445518,25.2444299 C72.9519554,21.8194955 73.8514313,18.0038804 74.0742765,14.0789854 C74.2074878,11.7327794 74.0867776,9.85081312 73.9132485,8.70399802 L73.4826144,5.85803225 L70.9001007,7.08976471 C69.8594467,7.58610567 68.2434344,8.53765789 66.3874295,9.96091187 C63.2825766,12.3418293 60.6460081,15.226832 58.8386045,18.6517664 C57.031201,22.0767009 56.1317251,25.8923159 55.9088799,29.817211 C55.7756685,32.1634169 55.8963787,34.0453833 56.0699078,35.1921984 L56.500542,38.0381641 L59.0830557,36.8064317 L59.0830557,36.8064317 L59.0830557,36.8064317 L59.0830557,36.8064317 L59.0830557,36.8064317 L59.0830557,36.8064317 L59.0830557,36.8064317 Z M64.595335,42.8058427 C65.7462076,42.839619 67.6148388,42.7309814 69.909846,42.3118326 C73.7490923,41.6106517 77.3982265,40.2461233 80.5518538,38.0212328 C83.7054811,35.7963423 86.2261731,32.8080456 88.1932225,29.4128731 C89.3690763,27.3833223 90.1095057,25.6512623 90.4716261,24.5500664 L91.3702734,21.8173102 L88.5142386,21.73349 C87.363366,21.6997137 85.4947348,21.8083513 83.1997276,22.2275 C79.3604813,22.928681 75.7113471,24.2932094 72.5577198,26.5180999 C69.4040925,28.7429903 66.8834005,31.731287 64.9163511,35.1264596 C63.7404973,37.1560104 63.0000679,38.8880703 62.6379475,39.9892663 L61.7393002,42.7220224 L64.595335,42.8058427 L64.595335,42.8058427 L64.595335,42.8058427 L64.595335,42.8058427 L64.595335,42.8058427 L64.595335,42.8058427 L64.595335,42.8058427 Z M66.5639414,50.4690993 C67.5643636,51.0433094 69.2648865,51.8312906 71.4865592,52.5467917 C75.2031266,53.7437313 79.0609207,54.2650428 82.8820924,53.7923143 C86.7032641,53.3195858 90.321295,51.8734177 93.6400717,49.8061147 C95.6239549,48.5703318 97.0847657,47.3912525 97.9175995,46.5902449 L99.9843813,44.6024438 L97.5017081,43.1774694 C96.5012859,42.6032593 94.800763,41.8152781 92.5790903,41.099777 C88.8625229,39.9028373 85.0047288,39.3815258 81.1835571,39.8542543 C77.3623854,40.3269829 73.7443544,41.773151 70.4255778,43.8404539 C68.4416946,45.0762369 66.9808838,46.2553161 66.14805,47.0563238 L64.0812682,49.0441248 L66.5639414,50.4690993 L66.5639414,50.4690993 L66.5639414,50.4690993 L66.5639414,50.4690993 L66.5639414,50.4690993 L66.5639414,50.4690993 L66.5639414,50.4690993 Z M64.8137647,58.1768444 C65.4295328,59.1570629 66.5638469,60.6571928 68.1920809,62.3398415 C70.9159031,65.1546924 74.0792288,67.4398023 77.6733903,68.8299037 C81.2675517,70.2200052 85.1359231,70.6545206 89.0294853,70.3990528 C91.3569613,70.2463404 93.1961707,69.89627 94.3047475,69.5829705 L97.0558202,68.8054783 L95.5277144,66.372943 C94.9119463,65.3927245 93.7776323,63.8925946 92.1493982,62.2099459 C89.4255761,59.395095 86.2622503,57.1099851 82.6680888,55.7198837 C79.0739274,54.3297822 75.2055561,53.8952668 71.3119938,54.1507346 C68.9845178,54.303447 67.1453084,54.6535174 66.0367316,54.966817 L63.2856589,55.7443091 L64.8137647,58.1768444 L64.8137647,58.1768444 L64.8137647,58.1768444 L64.8137647,58.1768444 L64.8137647,58.1768444 L64.8137647,58.1768444 L64.8137647,58.1768444 Z M59.5584611,64.4086906 C59.6654442,65.5637383 60.0001917,67.4192254 60.6927851,69.6632686 C61.8514031,73.4172587 63.6403142,76.9002854 66.2163787,79.782928 C68.7924432,82.6655705 72.0434019,84.8222097 75.6277009,86.3755922 C77.7703068,87.3041662 79.5667904,87.8335484 80.6957071,88.0614853 L83.4972559,88.6271393 L83.2317639,85.7607433 C83.1247808,84.6056956 82.7900333,82.7502085 82.0974399,80.5061654 C80.9388219,76.7521752 79.1499108,73.2691485 76.5738463,70.3865059 C73.9977817,67.5038634 70.7468231,65.3472242 67.1625241,63.7938417 C65.0199182,62.8652677 63.2234346,62.3358855 62.0945179,62.1079486 L59.2929691,61.5422946 L59.5584611,64.4086906 L59.5584611,64.4086906 L59.5584611,64.4086906 L59.5584611,64.4086906 L59.5584611,64.4086906 L59.5584611,64.4086906 L59.5584611,64.4086906 Z M52.2396682,67.2928168 C51.795936,68.3632686 51.2269393,70.1599093 50.7928548,72.4688933 C50.0666882,76.3315209 50.0232923,80.2530442 50.9546597,84.0168002 C51.8860271,87.7805561 53.7515707,91.2225285 56.1925228,94.289534 C57.651664,96.1229146 58.9912001,97.4401065 59.8817676,98.1753646 L62.0918228,100 L63.1929998,97.3435392 C63.6367319,96.2730873 64.2057286,94.4764466 64.6398132,92.1674627 C65.3659798,88.304835 65.4093756,84.3833117 64.4780082,80.6195557 C63.5466409,76.8557998 61.6810973,73.4138274 59.2401451,70.3468219 C57.7810039,68.5134414 56.4414679,67.1962495 55.5509003,66.4609913 L53.3408452,64.6363559 L52.2396682,67.2928168 L52.2396682,67.2928168 L52.2396682,67.2928168 L52.2396682,67.2928168 L52.2396682,67.2928168 L52.2396682,67.2928168 L52.2396682,67.2928168 Z M44.4334809,66.4609913 C43.5429134,67.1962495 42.2033773,68.5134414 40.7442361,70.3468219 C38.303284,73.4138274 36.4377404,76.8557998 35.506373,80.6195557 C34.5750056,84.3833117 34.6184015,88.304835 35.3445681,92.1674627 C35.7786526,94.4764466 36.3476494,96.2730873 36.7913815,97.3435392 L37.8925585,100 L40.1026137,98.1753646 C40.9931812,97.4401065 42.3327172,96.1229146 43.7918585,94.289534 C46.2328106,91.2225285 48.0983542,87.7805561 49.0297216,84.0168002 C49.9610889,80.2530442 49.9176931,76.3315209 49.1915265,72.4688933 C48.7574419,70.1599093 48.1884452,68.3632686 47.7447131,67.2928168 L46.6435361,64.6363559 L44.4334809,66.4609913 L44.4334809,66.4609913 L44.4334809,66.4609913 L44.4334809,66.4609913 L44.4334809,66.4609913 L44.4334809,66.4609913 L44.4334809,66.4609913 Z M37.8898634,62.1079486 C36.7609466,62.3358855 34.9644631,62.8652677 32.8218572,63.7938417 C29.2375582,65.3472242 25.9865995,67.5038634 23.410535,70.3865059 C20.8344705,73.2691485 19.0455593,76.7521752 17.8869413,80.5061654 C17.1943479,82.7502085 16.8596004,84.6056956 16.7526173,85.7607433 L16.4871253,88.6271393 L19.2886741,88.0614853 C20.4175909,87.8335484 22.2140744,87.3041662 24.3566804,86.3755922 C27.9409794,84.8222097 31.191938,82.6655705 33.7680025,79.782928 C36.3440671,76.9002854 38.1329782,73.4172587 39.2915962,69.6632686 C39.9841896,67.4192254 40.3189371,65.5637383 40.4259202,64.4086906 L40.6914122,61.5422946 L37.8898634,62.1079486 L37.8898634,62.1079486 L37.8898634,62.1079486 L37.8898634,62.1079486 L37.8898634,62.1079486 L37.8898634,62.1079486 L37.8898634,62.1079486 Z M33.9476497,54.966817 C32.8390729,54.6535174 30.9998634,54.303447 28.6723875,54.1507346 C24.7788252,53.8952668 20.9104538,54.3297822 17.3162924,55.7198837 C13.722131,57.1099851 10.5588052,59.395095 7.83498303,62.2099459 C6.206749,63.8925946 5.07243495,65.3927245 4.45666689,66.372943 L2.92856109,68.8054783 L5.67963372,69.5829705 C6.78821053,69.89627 8.62741997,70.2463404 10.9548959,70.3990528 C14.8484582,70.6545206 18.7168296,70.2200052 22.310991,68.8299037 C25.9051524,67.4398023 29.0684782,65.1546924 31.7923004,62.3398415 C33.4205344,60.6571928 34.5548485,59.1570629 35.1706165,58.1768444 L36.6987223,55.7443091 L33.9476497,54.966817 L33.9476497,54.966817 L33.9476497,54.966817 L33.9476497,54.966817 L33.9476497,54.966817 L33.9476497,54.966817 L33.9476497,54.966817 Z M33.8363313,47.0563238 C33.0034975,46.2553161 31.5426866,45.0762369 29.5588034,43.8404539 C26.2400268,41.773151 22.6219959,40.3269829 18.8008242,39.8542543 C14.9796525,39.3815258 11.1218584,39.9028373 7.40529099,41.099777 C5.18361824,41.8152781 3.48309532,42.6032593 2.4826732,43.1774694 L0,44.6024438 L2.06678175,46.5902449 C2.89961556,47.3912525 4.36042638,48.5703318 6.34430957,49.8061147 C9.66308621,51.8734177 13.2811171,53.3195858 17.1022888,53.7923143 C20.9234605,54.2650428 24.7812546,53.7437313 28.497822,52.5467917 C30.7194948,51.8312906 32.4200177,51.0433094 33.4204398,50.4690993 L35.903113,49.0441248 L33.8363313,47.0563238 L33.8363313,47.0563238 L33.8363313,47.0563238 L33.8363313,47.0563238 L33.8363313,47.0563238 L33.8363313,47.0563238 L33.8363313,47.0563238 Z M37.3464338,39.9892663 C36.9843133,38.8880703 36.243884,37.1560104 35.0680302,35.1264596 C33.1009808,31.731287 30.5802887,28.7429903 27.4266615,26.5180999 C24.2730342,24.2932094 20.6238999,22.928681 16.7846536,22.2275 C14.4896464,21.8083513 12.6210153,21.6997137 11.4701427,21.73349 L8.61410786,21.8173102 L9.51275517,24.5500664 C9.87487558,25.6512623 10.6153049,27.3833223 11.7911588,29.4128731 C13.7582082,32.8080456 16.2789002,35.7963423 19.4325275,38.0212328 C22.5861547,40.2461233 26.235289,41.6106517 30.0745353,42.3118326 C32.3695425,42.7309814 34.2381737,42.839619 35.3890462,42.8058427 L38.2450811,42.7220224 L37.3464338,39.9892663 L37.3464338,39.9892663 L37.3464338,39.9892663 L37.3464338,39.9892663 L37.3464338,39.9892663 L37.3464338,39.9892663 L37.3464338,39.9892663 Z M43.9144734,35.1921984 C44.0880025,34.0453833 44.2087127,32.1634169 44.0755014,29.817211 C43.8526562,25.8923159 42.9531803,22.0767009 41.1457767,18.6517664 C39.3383732,15.226832 36.7018047,12.3418293 33.5969517,9.96091187 C31.7409469,8.53765789 30.1249346,7.58610567 29.0842806,7.08976471 L26.5017669,5.85803225 L26.0711327,8.70399802 C25.8976037,9.85081312 25.7768934,11.7327794 25.9101048,14.0789854 C26.13295,18.0038804 27.0324259,21.8194955 28.8398294,25.2444299 C30.647233,28.6693644 33.2838015,31.5543671 36.3886544,33.9352845 C38.2446593,35.3585385 39.8606716,36.3100907 40.9013256,36.8064317 L43.4838393,38.0381641 L43.9144734,35.1921984 L43.9144734,35.1921984 L43.9144734,35.1921984 L43.9144734,35.1921984 L43.9144734,35.1921984 L43.9144734,35.1921984 L43.9144734,35.1921984 Z M49.9921906,64.2685071 C57.4059872,64.2685071 63.4160567,58.2129934 63.4160567,50.7431386 C63.4160567,43.2732838 57.4059872,37.21777 49.9921906,37.21777 C42.5783941,37.21777 36.5683245,43.2732838 36.5683245,50.7431386 C36.5683245,58.2129934 42.5783941,64.2685071 49.9921906,64.2685071 L49.9921906,64.2685071 L49.9921906,64.2685071 L49.9921906,64.2685071 L49.9921906,64.2685071 L49.9921906,64.2685071 Z"></path></g></g></svg></svg> <defs><filter id="colors1213026667"><feColorMatrix type="matrix" values="0 0 0 0 0.99609375  0 0 0 0 0.99609375  0 0 0 0 0.99609375  0 0 0 1 0" class="icon-fecolormatrix"></feColorMatrix></filter> <filter id="colorsf4047031897"><feColorMatrix type="matrix" values="0 0 0 0 0.99609375  0 0 0 0 0.99609375  0 0 0 0 0.99609375  0 0 0 1 0" class="icon-fecolormatrix"></feColorMatrix></filter> <filter id="colorsb9709635377"><feColorMatrix type="matrix" values="0 0 0 0 0  0 0 0 0 0  0 0 0 0 0  0 0 0 1 0" class="icon-fecolormatrix"></feColorMatrix></filter></defs></g></g></mask></svg>